<?xml version="1.0" encoding="iso-8859-1"?>
<!-- Generator: Adobe Illustrator 19.0.0, SVG Export Plug-In . SVG Version: 6.00 Build 0)  -->
<svg version="1.1" id="Layer_1" xmlns="http://www.w3.org/2000/svg" xmlns:xlink="http://www.w3.org/1999/xlink" x="0px" y="0px"
	 viewBox="0 0 512 512" style="enable-background:new 0 0 512 512;" xml:space="preserve">
<g>
	<g>
		<path d="M136.767,260.021c-7.498,0-11.07,3.571-11.783,9.285c-2.143,17.14-6.071,43.923-48.565,43.923
			c-34.639,0-52.851-17.14-52.851-54.635V147.894c0-37.138,18.211-54.278,51.421-54.278c42.495,0,49.279,27.853,49.993,43.209
			c0.357,5,3.57,8.927,11.783,8.927c8.214,0,11.784-2.499,11.784-14.283c0-32.139-26.782-59.635-73.561-59.635
			C34.281,71.834,0,92.545,0,147.894v110.699c0,55.707,33.567,76.418,73.919,76.418c47.136,0,74.632-27.853,74.632-60.349
			C148.551,262.879,144.98,260.021,136.767,260.021z"/>
	</g>
</g>
<g>
	<g>
		<path d="M261.032,71.834c-41.779,0-74.275,20.712-74.275,76.061v110.699c0,55.707,32.496,76.419,74.275,76.419
			s74.275-20.712,74.275-76.419V147.894C335.307,92.545,302.811,71.834,261.032,71.834z M311.74,258.593
			c0,37.495-18.926,54.635-50.707,54.635c-31.781,0-50.707-17.14-50.707-54.635V147.894c0-37.138,18.926-54.278,50.707-54.278
			s50.707,17.14,50.707,54.278V258.593z"/>
	</g>
</g>
<g>
	<g>
		<path d="M503.43,418.384H389.517v-22.14c0-47.494,119.983-71.777,119.983-148.551c0-38.566-29.997-68.562-71.062-68.562
			c-37.852,0-67.134,24.997-67.133,59.278c0,10.713,3.571,14.641,10.713,14.641c8.213,0,12.498-5,12.498-9.642
			c0-28.211,18.568-42.137,43.208-42.137c32.853,0,48.208,24.64,48.208,47.136c0,62.493-120.698,88.56-120.698,147.837v34.639
			c0,5.714,6.428,9.284,11.07,9.284H503.43c4.642,0,8.57-5.357,8.57-11.07S508.072,418.384,503.43,418.384z"/>
	</g>
</g>
<g>
</g>
<g>
</g>
<g>
</g>
<g>
</g>
<g>
</g>
<g>
</g>
<g>
</g>
<g>
</g>
<g>
</g>
<g>
</g>
<g>
</g>
<g>
</g>
<g>
</g>
<g>
</g>
<g>
</g>
</svg>
